#!OML:ASF F:\VICON\USERDATA\INSTALL\rory3\rory3.ASF
:FULLY-SPECIFIED
:DEGREES
753
root -0.694873 16.6646 22.6928 -154.653 -24.2275 -184.655
lowerback -19.2401 -1.13227 -4.60546
upperback -4.63161 -1.11617 -2.29281
thorax 5.77311 -0.885427 -0.132137
lowerneck -5.39525 4.46632 0.567896
upperneck -3.06226 5.7456 -3.94215
head 0.0880903 2.78622 -1.20327
rclavicle 9.83984e-015 -2.66371e-014
rhumerus -33.5283 -2.66005 -86.1266
rradius 37.2939
rwrist 2.12798
rhand 7.69096 14.4798
rfingers 7.12502
rthumb 32.9331 -12.5345
lclavicle 9.83984e-015 -2.66371e-014
lhumerus -38.3158 -6.56523 94.6408
lradius 69.6623
lwrist -34.9924
lhand 6.28882 8.80691
lfingers 7.12502
lthumb 31.5985 36.0926
rfemur 104.288 -163.818 -155.137
rtibia 44.6825
rfoot 8.76372 -40.8754
rtoes 33.4578
lfemur -30.1983 -4.34438 -31.1694
ltibia 34.0501
lfoot -36.7981 22.7731
ltoes -5.64999
754
root -0.68226 16.6631 22.6737 -154.579 -24.1759 -184.667
lowerback -19.3515 -1.0109 -4.81858
upperback -4.42806 -0.874245 -2.17649
thorax 6.04818 -0.763219 0.165219
lowerneck -5.77198 4.62054 0.392068
upperneck -2.40244 5.99517 -4.11306
head 0.360325 2.90322 -1.20477
rclavicle -8.59744e-015 -8.34896e-015
rhumerus -33.2635 -1.64213 -86.5366
rradius 38.2836
rwrist 3.29921
rhand 6.87491 13.6367
rfingers 7.12502
rthumb 32.1566 -13.5377
lclavicle -8.59744e-015 -8.34896e-015
lhumerus -37.639 -7.56312 95.3898
lradius 69.6605
lwrist -34.9357
lhand 5.63248 8.59705
lfingers 7.12502
lthumb 30.9731 36.0037
rfemur 103.878 -163.544 -154.649
rtibia 44.8579
rfoot 11.5001 -40.0296
rtoes 30.7037
lfemur -30.3009 -4.25483 -31.1372
ltibia 34.1353
lfoot -36.765 22.8512
ltoes -6.02868
755
root -0.664878 16.6622 22.6508 -154.68 -24.0404 -184.539
lowerback -19.3484 -0.821599 -5.02016
upperback -4.33995 -0.569525 -2.10476
thorax 6.13134 -0.613242 0.42931
lowerneck -5.73973 4.74885 0.845113
upperneck -1.57601 6.19478 -4.57092
head 0.65115 2.99513 -1.41034
rclavicle 2.00276e-014 -4.57205e-014
rhumerus -33.1679 -0.994192 -86.8743
rradius 39.3398
rwrist 4.05213
rhand 7.50173 11.8996
rfingers 7.12502
rthumb 32.7531 -15.1524
lclavicle 2.00276e-014 -4.57205e-014
lhumerus -37.3407 -8.60376 95.9116
lradius 69.7157
lwrist -34.8579
lhand 5.53154 8.61261
lfingers 7.12502
lthumb 30.8768 36.0375
rfemur 103.886 -163.783 -154.517
rtibia 44.9968
rfoot 10.9121 -40.1294
rtoes 32.329
lfemur -30.3485 -3.57715 -31.0704
ltibia 34.2792
lfoot -36.5763 22.5628
ltoes -6.41501
756
root -0.650513 16.6634 22.6264 -154.855 -23.9238 -184.412
lowerback -19.1392 -0.534037 -5.03365
upperback -4.34426 -0.191776 -2.18148
thorax 5.99854 -0.424332 0.449353
lowerneck -5.63167 4.83734 1.20375
upperneck -0.75674 6.34853 -4.74445
head 0.915508 3.06965 -1.5153
rclavicle 1.93815e-015 6.75868e-015
rhumerus -33.3068 -0.66834 -87.232
rradius 40.2565
rwrist 4.46365
rhand 7.27902 11.1509
rfingers 7.12502
rthumb 32.5412 -15.945
lclavicle 1.93815e-015 6.75868e-015
lhumerus -37.2967 -9.7868 96.2852
lradius 69.7347
lwrist -34.8434
lhand 5.57609 8.80136
lfingers 7.12502
lthumb 30.9193 36.2182
rfemur 103.87 -163.721 -154.057
rtibia 45.1956
rfoot 11.5764 -39.6759
rtoes 32.3606
lfemur -30.2579 -3.02446 -30.9827
ltibia 34.3949
lfoot -36.5215 22.2589
ltoes -6.61726
757
root -0.638391 16.6637 22.6063 -154.877 -24.08 -184.316
lowerback -18.8683 -0.350834 -4.95336
upperback -4.39489 0.019155 -2.20451
thorax 5.79133 -0.313875 0.433275
lowerneck -5.44513 5.01363 1.56045
upperneck -0.122119 6.60778 -4.95589
head 1.11597 3.19731 -1.63333
rclavicle -2.48481e-016 5.96354e-015
rhumerus -33.4771 -0.00588742 -87.6736
rradius 40.9415
rwrist 4.4942
rhand 5.3545 11.1788
rfingers 7.12502
rthumb 30.708 -16.2779
lclavicle -2.48481e-016 5.96354e-015
lhumerus -37.3448 -10.9859 96.6816
lradius 70.0372
lwrist -34.5691
lhand 5.55967 8.67549
lfingers 7.12502
lthumb 30.9037 36.0953
rfemur 103.538 -163.297 -153.344
rtibia 45.4658
rfoot 14.3745 -38.5977
rtoes 29.3647
lfemur -30.2909 -3.0544 -30.7757
ltibia 34.4894
lfoot -36.316 22.4468
ltoes -7.23901
758
root -0.624691 16.6609 22.5891 -154.837 -24.3604 -184.373
lowerback -18.5771 -0.329815 -4.9907
upperback -4.35481 0.0504276 -2.15723
thorax 5.67836 -0.28989 0.515213
lowerneck -5.61333 5.25421 1.54144
upperneck 0.512013 6.96546 -5.05035
head 1.36347 3.36619 -1.63778
rclavicle -1.54555e-014 1.66979e-014
rhumerus -33.371 1.15154 -88.1657
rradius 41.3356
rwrist 3.98847
rhand 3.13417 11.3303
rfingers 7.12502
rthumb 28.5888 -16.5034
lclavicle -1.54555e-014 1.66979e-014
lhumerus -37.2255 -11.9731 97.0458
lradius 70.7416
lwrist -33.8406
lhand 5.7942 8.64829
lfingers 7.12502
lthumb 31.1272 36.0254
rfemur 103.144 -162.837 -152.936
rtibia 45.8299
rfoot 16.6385 -37.6847
rtoes 26.2291
lfemur -30.2826 -3.68431 -30.5711
ltibia 34.5691
lfoot -36.7763 22.7364
ltoes -7.44472
759
root -0.619175 16.6618 22.5674 -154.835 -24.6627 -184.423
lowerback -18.4451 -0.363184 -4.98173
upperback -4.22857 0.0211311 -2.06883
thorax 5.74603 -0.296238 0.598604
lowerneck -5.91189 5.50049 1.49468
upperneck 1.08532 7.32852 -5.2052
head 1.61877 3.53183 -1.65268
rclavicle 6.11263e-015 -4.29375e-014
rhumerus -33.1205 2.26395 -88.5153
rradius 41.6961
rwrist 4.09539
rhand 1.8737 11.2662
rfingers 7.12502
rthumb 27.3838 -16.7641
lclavicle 6.11263e-015 -4.29375e-014
lhumerus -36.9394 -12.574 97.3095
lradius 71.2529
lwrist -33.3611
lhand 5.95349 8.97406
lfingers 7.12502
lthumb 31.279 36.322
rfemur 102.81 -162.277 -152.523
rtibia 46.2464
rfoot 17.6736 -36.9058
rtoes 24.6493
lfemur -30.1882 -4.20905 -30.4074
ltibia 34.6491
lfoot -37.1293 23.2155
ltoes -8.22927
760
root -0.618827 16.661 22.5479 -154.851 -24.9218 -184.36
lowerback -18.4069 -0.276833 -4.79178
upperback -4.10425 0.122358 -2.03495
thorax 5.85731 -0.238402 0.550588
lowerneck -6.05755 5.64416 1.6372
upperneck 1.59838 7.54231 -5.34776
head 1.83305 3.62777 -1.70556
rclavicle -2.3059e-014 1.31198e-014
rhumerus -32.9623 2.68678 -88.5912
rradius 42.2265
rwrist 4.93931
rhand 0.986189 11.4723
rfingers 7.12502
rthumb 26.5346 -16.6893
lclavicle -2.3059e-014 1.31198e-014
lhumerus -36.6145 -13.291 97.5453
lradius 71.5788
lwrist -33.0378
lhand 6.41566 9.59448
lfingers 7.12502
lthumb 31.7193 36.8563
rfemur 102.383 -161.574 -151.755
rtibia 46.6684
rfoot 18.4869 -35.8705
rtoes 24.1167
lfemur -30.1559 -4.39171 -30.2276
ltibia 34.7422
lfoot -36.9325 23.1427
ltoes -7.70824
761
root -0.610186 16.6624 22.5251 -155.002 -25.2153 -184.194
lowerback -18.1862 -0.206109 -4.55968
upperback -4.03882 0.178643 -2.02973
thorax 5.81016 -0.199685 0.439481
lowerneck -5.97716 5.81602 2.02722
upperneck 2.00226 7.7754 -5.52377
head 1.98799 3.74083 -1.81806
rclavicle 2.72832e-014 1.35174e-014
rhumerus -33.0082 2.95939 -88.7664
rradius 42.7824
rwrist 5.08081
rhand -0.176819 12.3325
rfingers 7.12502
rthumb 25.421 -15.9925
lclavicle 2.72832e-014 1.35174e-014
lhumerus -36.4956 -13.9176 97.5016
lradius 71.9169
lwrist -32.7999
lhand 6.8197 9.72705
lfingers 7.12502
lthumb 32.1041 36.9121
rfemur 102.148 -161.115 -151.174
rtibia 47.0667
rfoot 19.3904 -34.9346
rtoes 23.3184
lfemur -30.0713 -4.37094 -29.9356
ltibia 34.8929
lfoot -36.782 22.8008
ltoes -7.11169
762
root -0.587922 16.6559 22.4982 -154.962 -25.5124 -184.271
lowerback -18.0007 -0.235422 -4.72989
upperback -3.96388 0.177052 -2.02709
thorax 5.79019 -0.197222 0.539191
lowerneck -5.91295 6.04013 2.40909
upperneck 2.27746 8.0735 -5.75013
head 2.11115 3.88579 -1.94372
rclavicle 6.54995e-014 6.75868e-015
rhumerus -32.8223 3.31171 -88.9234
rradius 43.1702
rwrist 4.27173
rhand -1.06595 12.7936
rfingers 7.12502
rthumb 24.569 -15.6499
lclavicle 6.54995e-014 6.75868e-015
lhumerus -36.278 -14.4152 97.4123
lradius 72.2082
lwrist -32.4862
lhand 7.08337 9.78825
lfingers 7.12502
lthumb 32.355 36.9223
rfemur 101.984 -161.104 -151.45
rtibia 47.4757
rfoot 19.4423 -35.026
rtoes 23.7706
lfemur -30.121 -4.48705 -29.788
ltibia 35.0906
lfoot -36.9674 22.4936
ltoes -6.85168
763
root -0.570085 16.6459 22.4748 -154.83 -25.8623 -184.255
lowerback -17.824 -0.169029 -4.71768
upperback -4.02943 0.247619 -2.01759
thorax 5.62212 -0.158592 0.559914
lowerneck -5.9051 6.13036 2.5239
upperneck 2.82208 8.21509 -5.73629
head 2.30168 3.95208 -1.94763
rclavicle -9.74045e-015 -4.96962e-014
rhumerus -32.9384 3.37454 -88.9031
rradius 43.7522
rwrist 3.16755
rhand -1.30355 12.877
rfingers 7.12502
rthumb 24.3412 -15.5973
lclavicle -9.74045e-015 -4.96962e-014
lhumerus -36.3608 -15.0376 97.4743
lradius 72.6405
lwrist -32.2273
lhand 7.59463 9.8948
lfingers 7.12502
lthumb 32.8415 36.9283
rfemur 101.673 -161.12 -151.68
rtibia 47.9196
rfoot 19.4677 -35.2277
rtoes 24.8511
lfemur -30.3174 -4.87235 -29.5018
ltibia 35.298
lfoot -37.2067 22.1807
ltoes -5.95658
764
root -0.564854 16.6402 22.4478 -154.813 -26.0222 -184.144
lowerback -17.6913 0.0594348 -4.47768
upperback -4.14158 0.490494 -2.1304
thorax 5.42477 -0.0354552 0.35881
lowerneck -5.80016 6.09941 2.78465
upperneck 3.51832 8.19013 -5.7038
head 2.52581 3.93821 -1.9805
rclavicle -1.41137e-014 -4.17448e-014
rhumerus -33.3501 3.10044 -88.9111
rradius 44.4734
rwrist 1.90736
rhand -1.83582 13.3225
rfingers 7.12502
rthumb 23.8308 -15.2193
lclavicle -1.41137e-014 -4.17448e-014
lhumerus -36.7739 -15.861 97.5443
lradius 73.1867
lwrist -31.9055
lhand 7.79604 10.0613
lfingers 7.12502
lthumb 33.0331 37.0545
rfemur 101.334 -160.973 -151.557
rtibia 48.4026
rfoot 20.1324 -34.7376
rtoes 24.45
lfemur -30.3821 -5.23752 -29.2088
ltibia 35.5076
lfoot -37.6289 22.0003
ltoes -5.2861
